<svg width="28" height="28" viewBox="0 0 28 28" fill="none" xmlns="http://www.w3.org/2000/svg">
<g clip-path="url(#clip0_335_2)">
<path fill-rule="evenodd" clip-rule="evenodd" d="M22.744 4.53261C23.0024 4.33965 23.311 4.27826 23.605 4.36134C23.8991 4.44441 24.1558 4.66549 24.3213 4.97818L25.4763 7.16265C25.6272 7.44815 25.6918 7.79061 25.6587 8.12948C25.6256 8.46835 25.497 8.78179 25.2955 9.01438L25.292 9.02017L25.2756 9.03898L25.2091 9.11565L24.9466 9.42668C23.4941 11.1737 22.0857 12.9761 20.7233 14.8314C18.1602 18.3266 15.1163 22.9009 13.0677 27.3393C12.496 28.5777 11.0995 28.8438 10.2712 27.7748L2.70532 18.0271C2.59689 17.8874 2.51223 17.722 2.45637 17.5409C2.40051 17.3598 2.37458 17.1666 2.38013 16.9728C2.38568 16.779 2.4226 16.5885 2.48868 16.4128C2.55477 16.237 2.64867 16.0796 2.76482 15.9497L5.05148 13.392C5.25243 13.1673 5.5101 13.0363 5.78039 13.0212C6.05068 13.0062 6.31678 13.1081 6.53315 13.3095L10.3937 16.8987C16.423 9.52506 19.8436 6.69538 22.744 4.53261Z" fill="#008000"/>
</g>
<defs>
<clipPath id="clip0_335_2">
<rect width="28" height="28" fill="white"/>
</clipPath>
</defs>
</svg>
