<svg width="25" height="25" viewBox="0 0 25 25" fill="none" xmlns="http://www.w3.org/2000/svg">
<path d="M2.5 25C1.8125 25 1.22375 24.6937 0.733752 24.0812C0.243752 23.4687 -0.000831211 22.7333 2.12224e-06 21.875V3.125C2.12224e-06 2.26563 0.245002 1.52969 0.735002 0.91719C1.225 0.30469 1.81334 -0.00103901 2.5 2.6528e-06H22.5C23.1875 2.6528e-06 23.7762 0.306252 24.2662 0.918752C24.7562 1.53125 25.0008 2.26667 25 3.125V21.875C25 22.7344 24.755 23.4703 24.265 24.0828C23.775 24.6953 23.1867 25.001 22.5 25H2.5ZM12.5 14.0625L22.5 6.25V3.125L12.5 10.9375L2.5 3.125V6.25L12.5 14.0625Z" fill="white"/>
</svg>
