<svg width="48" height="48" viewBox="0 0 48 48" fill="none" xmlns="http://www.w3.org/2000/svg">
<path d="M37 40.494V32C37 32 32 29 24 29C16 29 11 32 11 32V40.494M3 24C3 12.402 12.402 3 24 3C35.598 3 45 12.402 45 24C45 35.598 35.598 45 24 45C12.402 45 3 35.598 3 24ZM23.852 25C23.852 25 17 21.36 17 16C17 12.134 20.138 9 24.008 9C24.9269 8.99974 25.8369 9.18067 26.6859 9.53246C27.5348 9.88425 28.3061 10.4 28.9555 11.0501C29.6049 11.7003 30.1198 12.4722 30.4706 13.3215C30.8214 14.1709 31.0013 15.0811 31 16C31 21.36 24.148 25 24.148 25H23.852Z" stroke="white" stroke-width="1.04167"/>
</svg>
